<?xml version="1.0" encoding="UTF-8"?>
<svg version="1.1" xmlns="http://www.w3.org/2000/svg" width="1023" height="1023">
<path d="M0 0 C16.17 0 32.34 0 49 0 C59.65563514 25.42582245 70.08218782 50.93299211 80.38232422 76.50439453 C84.66681436 87.13928221 88.96381809 97.76912104 93.25848389 108.39990234 C95.53094704 114.02549345 97.80260908 119.65140797 100.07421875 125.27734375 C100.47322891 126.26552597 100.87223907 127.25370819 101.28334045 128.27183533 C102.18890472 130.51455241 103.09445865 132.75727366 104 135 C104.0727137 133.85856033 104.0727137 133.85856033 104.14689636 132.69406128 C104.37489374 129.1886827 104.61510779 125.68423917 104.85546875 122.1796875 C104.93148315 120.98303467 105.00749756 119.78638184 105.08581543 118.5534668 C106.5414877 97.74904117 113.44633242 79.36396621 123 61 C123.66 61 124.32 61 125 61 C125.25007813 60.278125 125.50015625 59.55625 125.7578125 58.8125 C127.11138659 55.74780396 128.74160037 53.57618069 130.875 51 C131.89207031 49.7625 131.89207031 49.7625 132.9296875 48.5 C133.95449219 47.2625 133.95449219 47.2625 135 46 C135.61359375 45.18015625 136.2271875 44.3603125 136.859375 43.515625 C139.40902478 40.51932125 142.27496733 38.141958 145.375 35.75 C146.29756592 35.03493286 146.29756592 35.03493286 147.23876953 34.30541992 C182.1605332 7.61388092 222.05877717 -0.35676277 265.29115295 -0.24050903 C267.72295836 -0.24138254 270.15476359 -0.24313617 272.58656782 -0.24568737 C277.84722266 -0.24921067 283.10783641 -0.24659871 288.3684845 -0.23841095 C296.19069808 -0.22627043 304.01288333 -0.22574584 311.83510462 -0.22749493 C324.99748568 -0.23011436 338.15984656 -0.22347183 351.32222176 -0.21146011 C364.34533857 -0.19960607 377.36844697 -0.19192419 390.39156914 -0.18975449 C391.20279978 -0.18961701 392.01403042 -0.18947953 392.8498438 -0.18933788 C396.97005782 -0.18866117 401.09027184 -0.18805842 405.21048587 -0.18748413 C434.35655684 -0.18328881 463.50261684 -0.16982949 492.64868164 -0.15087891 C520.95499615 -0.13249563 549.26130766 -0.11833547 577.56762695 -0.10986328 C578.87754818 -0.1094687 578.87754818 -0.1094687 580.21393247 -0.10906615 C588.98417126 -0.106429 597.75441008 -0.10387739 606.52464892 -0.10138843 C624.38894559 -0.09631668 642.25324207 -0.09067418 660.11753845 -0.08468628 C661.34946232 -0.08427441 661.34946232 -0.08427441 662.60627354 -0.08385422 C687.76787691 -0.0754119 712.92947842 -0.06455161 738.09107971 -0.05130005 C738.80512532 -0.05092493 739.51917094 -0.05054982 740.25485429 -0.05016333 C769.16990371 -0.03493643 798.08495167 -0.0171461 827 0 C827 41.25 827 82.5 827 125 C818.09 125 809.18 125 800 125 C792.08 83.915 792.08 83.915 784 42 C774.91943239 40.70277606 766.05549447 39.56576205 756.9375 38.9375 C755.88884766 38.85951172 754.84019531 38.78152344 753.75976562 38.70117188 C750.17448098 38.44401749 746.58770859 38.2198102 743 38 C742.34596821 37.95839123 741.69193642 37.91678246 741.01808548 37.87391281 C723.34814069 36.78174507 705.66212933 36.78261484 687.9659307 36.69667697 C683.59378947 36.674499 679.22167945 36.64726909 674.8495636 36.62062073 C666.60544302 36.57111649 658.36130472 36.52602466 650.11715013 36.48259836 C640.71657948 36.43285976 631.3160402 36.37807996 621.91550004 36.32291877 C602.61036262 36.20974941 583.30519543 36.10277409 564 36 C566.3479129 39.45123323 568.69727796 42.90147565 571.046875 46.3515625 C571.70155762 47.31392822 572.35624023 48.27629395 573.03076172 49.26782227 C577.39160975 55.66928907 581.79830551 62.03640094 586.25 68.375 C586.86068329 69.24463882 587.47136658 70.11427765 588.10055542 71.01026917 C588.64229401 71.7816069 589.18403259 72.55294464 589.7421875 73.34765625 C592.64515004 77.48543581 595.51799796 81.64289369 598.375 85.8125 C605.52708731 96.24733819 612.7695207 106.61940942 620 117 C635.61706882 139.42097526 635.61706882 139.42097526 642.91918945 150.07592773 C646.57914229 155.40763494 650.28639477 160.70556281 654 166 C658.15192106 171.91933818 662.28762337 177.84839295 666.375 183.8125 C671.05711535 190.64325733 675.77336633 197.44997508 680.5 204.25 C681.54293213 205.75203979 681.54293213 205.75203979 682.60693359 207.28442383 C683.59040771 208.69824341 683.59040771 208.69824341 684.59375 210.140625 C685.47063477 211.40181152 685.47063477 211.40181152 686.36523438 212.68847656 C687.44322909 214.2127379 688.55902237 215.71104841 689.71289062 217.17871094 C691 219 691 219 691 221 C699.58 221 708.16 221 717 221 C717 201.2 717 181.4 717 161 C726.9 161 736.8 161 747 161 C747.60642846 166.45785616 748.12484413 171.30814527 748.12025452 176.70094299 C748.12162918 177.95860977 748.12300385 179.21627655 748.12442017 180.51205444 C748.12088246 181.87725855 748.11724768 183.2424624 748.11352539 184.60766602 C748.11324286 186.06710305 748.11340254 187.52654022 748.1139679 188.98597717 C748.1142533 192.92334781 748.10839824 196.86068761 748.10139394 200.79805112 C748.09511749 204.92200134 748.09455322 209.04595236 748.09336853 213.16990662 C748.09026782 220.96820966 748.0820715 228.76649859 748.07201904 236.56479543 C748.06081866 245.44754178 748.05533758 254.33028882 748.05032361 263.21304047 C748.03988778 281.47536993 748.02155805 299.73768005 748 318 C738.1 318 728.2 318 718 318 C717.67 298.2 717.34 278.4 717 258 C694.30277964 256.27458742 694.30277964 256.27458742 686.25 265.5625 C684.65510086 267.67555997 684.65510086 267.67555997 683.5703125 269.703125 C681.04549665 273.99318048 678.15917417 277.87290381 675.125 281.8125 C674.12582647 283.15101858 673.12845589 284.49088474 672.1328125 285.83203125 C668.81554592 290.26874367 665.41215733 294.63607949 662 299 C657.60537473 304.62255291 653.26348914 310.2773488 649 316 C644.15775623 322.49948228 639.20187127 328.90328261 634.2109375 335.2890625 C630.41756004 340.15193845 626.68463345 345.05431553 623 350 C618.15775623 356.49948228 613.20187127 362.90328261 608.2109375 369.2890625 C604.41756004 374.15193845 600.68463345 379.05431553 597 384 C592.15775623 390.49948228 587.20187127 396.90328261 582.2109375 403.2890625 C577.91886464 408.7912352 573.71569081 414.3533587 569.54785156 419.94995117 C565.14162288 425.8500524 560.62374105 431.66017561 556.0703125 437.44726562 C552.89360246 441.50095841 549.80940325 445.60831016 546.78613281 449.77807617 C545.71869843 451.24926155 545.71869843 451.24926155 544.62969971 452.75016785 C544.0918988 453.49261246 543.5540979 454.23505707 543 455 C564.29398424 454.91485366 585.58790141 454.81930985 606.88178825 454.71247292 C616.77632097 454.66305375 626.67084819 454.6166771 636.56542969 454.578125 C691.70216585 454.40155042 691.70216585 454.40155042 746.8203125 453.0859375 C747.9374551 453.04771503 749.0545977 453.00949257 750.20559311 452.97011185 C770.16492057 452.2650522 790.13640367 451.11179157 810 449 C810.24097412 447.81664062 810.48194824 446.63328125 810.73022461 445.4140625 C812.24007312 438.63488809 814.30451457 432.01831454 816.31640625 425.375 C816.73732997 423.97784137 817.15805722 422.58062354 817.57859802 421.18334961 C818.4548205 418.27474608 819.33337102 415.36685914 820.21362305 412.45947266 C821.34344313 408.72711182 822.46737305 404.993007 823.58961582 401.25836182 C824.45458524 398.38216552 825.32259178 395.50689294 826.19154167 392.63189697 C826.60753983 391.25421392 827.02258811 389.87624368 827.43667793 388.49798584 C828.01271624 386.5823598 828.59327746 384.66809555 829.17407227 382.75390625 C829.5033522 381.66408447 829.83263214 380.5742627 830.17189026 379.45141602 C831 377 831 377 832 376 C833.92667507 375.91251793 835.85651861 375.89302666 837.78515625 375.90234375 C839.53989258 375.90717773 839.53989258 375.90717773 841.33007812 375.91210938 C842.56177734 375.92048828 843.79347656 375.92886719 845.0625 375.9375 C846.91584961 375.94426758 846.91584961 375.94426758 848.80664062 375.95117188 C851.87114349 375.96300393 854.93554036 375.98032565 858 376 C858.26821235 389.96618051 857.44858243 403.87770184 856.72265625 417.8203125 C856.59024573 420.41330538 856.458125 423.00631308 856.32627869 425.59933472 C856.05034975 431.01051998 855.77200228 436.42157193 855.49145508 441.83251953 C855.16895458 448.05298435 854.8502701 454.27363512 854.533804 460.49440968 C854.22686722 466.52742517 853.9179333 472.56033602 853.60796928 478.59319687 C853.47723424 481.13906817 853.34687297 483.68495869 853.21690559 486.23086929 C853.03441244 489.79739529 852.84967529 493.36379822 852.66430664 496.93017578 C852.61179749 497.96325867 852.55928833 498.99634155 852.50518799 500.06072998 C852.12089929 507.38986436 851.563346 514.67650194 851 522 C733.19 522 615.38 522 494 522 C493.67 523.65 493.34 525.3 493 527 C491 529 491 529 488.3737793 529.24291992 C486.74049683 529.23675659 486.74049683 529.23675659 485.07421875 529.23046875 C483.88505859 529.22853516 482.69589844 529.22660156 481.47070312 529.22460938 C480.22224609 529.21236328 478.97378906 529.20011719 477.6875 529.1875 C476.45064453 529.18685547 475.21378906 529.18621094 473.93945312 529.18554688 C462.99350407 529.13232508 462.99350407 529.13232508 459 528 C458 526 458 526 457.8203125 522.0078125 C457.18625589 515.96378236 454.22968357 511.8117678 450.875 506.875 C450.24899902 505.92343018 449.62299805 504.97186035 448.97802734 503.99145508 C447.65831829 501.9875923 446.33152298 499.98838027 444.99804688 497.99365234 C442.45736165 494.18697074 439.960681 490.35260422 437.46533203 486.51611328 C435.59867508 483.64703826 433.72512475 480.78253794 431.8515625 477.91796875 C427.86208827 471.80342236 423.92779356 465.65428922 420 459.5 C412.95905207 448.46989494 405.82458581 437.50316502 398.66503906 426.54980469 C391.59161371 415.71771459 384.60175692 404.8320168 377.625 393.9375 C376.94638916 392.87805176 376.26777832 391.81860352 375.56860352 390.72705078 C374.91947998 389.71239746 374.27035645 388.69774414 373.6015625 387.65234375 C373.02744629 386.75507568 372.45333008 385.85780762 371.86181641 384.93334961 C369.55606333 381.30056398 367.28045116 377.64872186 365 374 C364.67 422.51 364.34 471.02 364 521 C361.03 521 358.06 521 355 521 C355 468.53 355 416.06 355 362 C370 362 370 362 373.51953125 365.41015625 C374.7199707 367.63574219 374.7199707 367.63574219 375.8125 370.0625 C376.69470981 371.73737017 377.58017816 373.41052764 378.46875 375.08203125 C378.8915625 375.91943848 379.314375 376.7568457 379.75 377.61962891 C381.52899599 381.00736541 383.6324494 384.11132683 385.8125 387.25 C389.9286328 393.32328116 393.8858166 399.49032553 397.8125 405.6875 C402.29260108 412.75634586 406.80211622 419.803296 411.375 426.8125 C416.98283839 435.40992192 422.52027058 444.05108273 428.04492188 452.70214844 C432.76007015 460.07951399 437.51016766 467.4329594 442.3125 474.75390625 C445.67610318 479.90040292 448.94941425 485.10011097 452.20361328 490.31616211 C452.66586807 491.05646416 453.12812286 491.7967662 453.60438538 492.55950165 C454.73657334 494.37280357 455.86833027 496.1863746 457 498 C457.64392593 461.52360035 458.10054924 425.05284758 458.09765625 388.5703125 C458.09759189 387.75870635 458.09752753 386.9471002 458.09746122 386.11089993 C458.09584571 376.27265801 458.08565686 366.43443345 458.07202661 356.59620166 C458.06047036 348.09429085 458.05525903 339.59237878 458.05032361 331.09046197 C458.04011488 313.72696549 458.02275516 296.36348451 458 279 C456.86344971 279.16265854 455.72689941 279.32531708 454.5559082 279.49290466 C450.0563928 280.05232619 445.63473743 280.13427586 441.10546875 280.11352539 C439.83087547 280.11374443 439.83087547 280.11374443 438.53053284 280.1139679 C435.74949502 280.11327672 432.96852597 280.10552192 430.1875 280.09765625 C428.24837277 280.09578924 426.30924506 280.09436667 424.37011719 280.09336853 C419.28699421 280.08956564 414.20390018 280.07975454 409.12078857 280.06866455 C403.92558178 280.05840236 398.73037027 280.05386064 393.53515625 280.04882812 C383.35675817 280.03813013 373.1783815 280.02108068 363 280 C362.77488235 280.54502167 362.54976471 281.09004333 362.31782532 281.65158081 C303.625 423.74999999 303.625 423.74999999 302.43771362 426.62446594 C301.64531901 428.54290625 300.85294029 430.46135312 300.06057739 432.37980652 C298.09267788 437.1443902 296.12451063 441.90886292 294.15576172 446.6730957 C290.45861751 455.62073054 286.76422928 464.56947599 283.07879639 473.52194214 C281.34577233 477.73126963 279.61129533 481.93999774 277.87670898 486.14868164 C277.05355534 488.14708097 276.23110662 490.14577084 275.40942383 492.14477539 C274.26694583 494.92408872 273.12199694 497.70237281 271.9765625 500.48046875 C271.64713654 501.28373093 271.31771057 502.0869931 270.978302 502.91459656 C268.45683843 509.0198515 265.73851174 514.97527417 263 521 C251.78 521 240.56 521 229 521 C220.07341783 499.94452694 211.26616604 478.84954612 202.70669556 457.64212036 C202.39743134 456.87592377 202.08816711 456.10972717 201.76953125 455.3203125 C201.4603476 454.55419647 201.15116394 453.78808044 200.83261108 452.99874878 C197.31789536 444.29786663 193.7543109 435.61712802 190.1875 426.9375 C189.86293823 426.14769745 189.53837646 425.3578949 189.20397949 424.54415894 C188.87853149 423.75220123 188.5530835 422.96024353 188.21777344 422.14428711 C187.55010107 420.51938046 186.88245814 418.89446172 186.21484375 417.26953125 C185.87969757 416.45385178 185.54455139 415.6381723 185.19924927 414.79777527 C182.50068528 408.2267 179.81346373 401.65102697 177.12890625 395.07421875 C176.30770371 393.06323032 175.48649606 391.05224398 174.6652832 389.04125977 C173.46903631 386.11172512 172.27323608 383.18201265 171.07894897 380.25167847 C169.97573223 377.54488827 168.87082409 374.83879378 167.765625 372.1328125 C167.44336441 371.3406987 167.12110382 370.5485849 166.78907776 369.73246765 C164.62603701 364.44213313 162.34844449 359.21060518 160 354 C156.58030385 362.56325553 153.56886172 371.14521151 151 380 C150.8040625 380.6609668 150.608125 381.32193359 150.40625 382.00292969 C138.63306683 421.82940088 134.64012108 464.24847373 132.7265625 505.59765625 C132.66686279 506.88240845 132.66686279 506.88240845 132.60595703 508.19311523 C132.53865274 509.73785733 132.47885782 511.28295915 132.42919922 512.82836914 C132.22226345 517.87937553 131.90085517 523.27520315 130 528 C125.00023776 529.66658741 119.78424235 529.22509077 114.54833984 529.24023438 C112.50707648 529.24996626 110.46680957 529.28101631 108.42578125 529.3125 C107.14058594 529.31765625 105.85539062 529.3228125 104.53125 529.328125 C103.35111328 529.3374707 102.17097656 529.34681641 100.95507812 529.35644531 C98 529 98 529 96.10839844 528.00683594 C94.28406331 524.70374459 94.64104673 521.23273749 94.734375 517.5625 C94.74595642 516.71921143 94.75753784 515.87592285 94.76947021 515.00708008 C94.94272345 505.65183791 95.54812242 496.32817947 96.25 487 C96.31558105 486.10345703 96.38116211 485.20691406 96.44873047 484.28320312 C98.22799918 460.09880253 100.50855497 435.84859673 105 412 C105.26165587 410.53016798 105.52203683 409.06010852 105.78125 407.58984375 C106.86180361 401.56790449 108.05243083 395.80742547 110 390 C110.67681548 387.42565976 111.31331485 384.84250275 111.95336914 382.25878906 C115.85599372 366.59637689 120.90384609 351.52346168 128 337 C128.38671875 336.18789063 128.7734375 335.37578125 129.171875 334.5390625 C132.94966646 326.76269957 137.20338642 319.19492037 142 312 C141.6405223 307.23489334 139.41441092 302.80224124 137.59765625 298.43359375 C137.24866776 297.5841217 136.89967926 296.73464966 136.54011536 295.85943604 C135.3850287 293.05040872 134.22372118 290.24399626 133.0625 287.4375 C132.24773747 285.4589346 131.43345476 283.48017156 130.61962891 281.5012207 C128.92583718 277.38351394 127.22997145 273.26667036 125.53271484 269.15039062 C122.0019526 260.5825378 118.49823139 252.00365376 114.99362183 243.42507935 C108.68320113 227.98172133 102.35488432 212.54571479 96.0199585 197.11239624 C90.67027695 184.07888979 85.33263336 171.04049024 80 158 C72.34633616 139.28416717 64.67658419 120.57498104 56.99853516 101.86914062 C53.85915744 94.22069305 50.72062931 86.5718969 47.58233643 78.92300415 C46.61017333 76.55368752 45.63785988 74.18443264 44.66552734 71.81518555 C39.76845496 59.88026885 34.88457118 47.94006288 30 36 C29.67 196.05 29.34 356.1 29 521 C19.43 521 9.86 521 0 521 C0 349.07 0 177.14 0 0 Z M387.40625 34.12109375 C384.7611115 34.14544161 382.11597271 34.1693386 379.4708252 34.19264221 C373.26288942 34.24830754 367.05502536 34.30974521 360.84716654 34.37336355 C353.76837446 34.44561818 346.68952571 34.51127523 339.61066532 34.57643402 C325.07370422 34.7103873 310.53682933 34.85244417 296 35 C299.41536752 37.74895434 302.87310997 40.38428444 306.4375 42.9375 C331.00312428 60.84515135 343.612197 87.84646258 348.3125 117.3125 C351.93851636 149.77231952 346.54395494 185.19646634 325.9375 211.5 C324.63679971 213.01024336 323.32467258 214.51073884 322 216 C321.38769531 216.75410156 320.77539062 217.50820313 320.14453125 218.28515625 C310.07697603 230.38698036 296.8341168 237.09815826 283 244 C283 244.33 283 244.66 283 245 C303.46 245 323.92 245 345 245 C354.99361848 221.09369697 364.87354054 197.1452458 374.66748047 173.15664673 C378.43387362 163.93319872 382.21604122 154.71625217 386 145.5 C392.43159704 129.83241554 398.84710002 114.15828451 405.25610352 98.48144531 C409.02634726 89.26050866 412.80218588 80.04192367 416.58984375 70.828125 C416.95880768 69.93025269 417.32777161 69.03238037 417.70791626 68.1072998 C419.45810806 63.84827127 421.2094029 59.58970388 422.96289062 55.33203125 C423.588596 53.80991817 424.21424992 52.28778393 424.83984375 50.765625 C425.25580055 49.75764862 425.25580055 49.75764862 425.68016052 48.72930908 C427.54571666 44.18521377 429.2930324 39.60609288 431 35 C416.47171568 33.7193554 401.97635957 33.96411616 387.40625 34.12109375 Z M183 57 C182.0925 57.81339844 181.185 58.62679687 180.25 59.46484375 C163.13318557 75.6544974 151.97088559 99.72614367 150.83886719 123.36474609 C150.79291591 127.36838477 150.75333777 131.3710928 150.75 135.375 C150.74932526 136.09686493 150.74865051 136.81872986 150.74795532 137.56246948 C150.76349553 147.9998282 151.09599143 157.88280884 154 168 C154.3403125 169.2375 154.680625 170.475 155.03125 171.75 C159.17825566 185.42391055 165.62166144 197.21391929 175 208 C175.45503906 208.598125 175.91007812 209.19625 176.37890625 209.8125 C188.89944691 225.95839124 210.32493821 235.06492013 230 238 C255.15499232 239.59125464 280.37737064 236.12108306 300.328125 219.26953125 C321.49161374 200.61717303 333.61463236 176.12193837 336 148 C337.98035269 114.91750103 329.78207222 86.3828539 308.26171875 60.9453125 C292.96492355 44.47184075 270.85553655 36.78796639 249 35 C225.7817601 34.3425981 200.36765119 41.39625088 183 57 Z M457 50 C445.77567626 77.04546185 434.581042 104.1030681 423.40722656 131.16943359 C420.62377036 137.91159873 417.83927313 144.65333373 415.05439758 151.39491272 C413.08709358 156.15734679 411.12013491 160.91992271 409.15405273 165.68286133 C405.47731775 174.58891509 401.79706617 183.49346685 398.10458374 192.39300537 C396.37891182 196.55278252 394.65520621 200.71337319 392.93164062 204.87402344 C392.11702536 206.83894707 391.30146889 208.80348083 390.48486328 210.76757812 C389.34551844 213.50810003 388.20956505 216.2500071 387.07421875 218.9921875 C386.58782173 220.15837112 386.58782173 220.15837112 386.09159851 221.34811401 C382.86073776 229.16907192 379.97748699 237.0600347 377 245 C403.73 245 430.46 245 458 245 C458.43027196 220.53769906 458.43027196 220.53769906 458.76953125 196.07421875 C458.78486876 194.75088815 458.78486876 194.75088815 458.80051613 193.40082359 C459.09529008 167.18395103 459.15176778 140.96563958 459.17937243 114.74736047 C459.18474947 110.02449124 459.1953277 105.30165113 459.20800781 100.57879639 C459.22506395 94.14090333 459.23090452 87.70305832 459.22919655 81.26514244 C459.23003949 78.8610162 459.23422797 76.45688862 459.24188805 74.05277443 C459.25163341 70.74433246 459.2489124 67.4361311 459.24291992 64.12768555 C459.24854195 63.15321913 459.25416397 62.17875271 459.25995636 61.174757 C459.25575935 60.2820315 459.25156235 59.38930599 459.24723816 58.4695282 C459.24778293 57.69785655 459.24832769 56.9261849 459.24888897 56.13112926 C458.967752 53.72387426 458.19648178 52.09104334 457 50 Z M494 69 C494 196.05 494 323.1 494 454 C497.19787363 450.80212637 499.77529824 448.1691417 502.3828125 444.62890625 C502.98689941 443.81462158 503.59098633 443.00033691 504.21337891 442.16137695 C504.84421387 441.30374756 505.47504883 440.44611816 506.125 439.5625 C510.55839147 433.59115802 515.00370977 427.64001946 519.625 421.8125 C525.28113722 414.67199418 530.80796758 407.43571474 536.32958984 400.19091797 C539.11213076 396.54132396 541.89974922 392.89561511 544.6875 389.25 C545.23132324 388.5386792 545.77514648 387.8273584 546.33544922 387.09448242 C550.35277728 381.84156769 554.38373431 376.59931763 558.41796875 371.359375 C563.0684032 365.31362877 567.69533244 359.24983784 572.32666016 353.18945312 C575.58933498 348.92046162 578.85365187 344.65272566 582.11767578 340.38476562 C584.86416439 336.79339457 587.61022598 333.20169849 590.35546875 329.609375 C595.22870225 323.23318164 600.1042552 316.85893186 605 310.5 C615.08484104 297.39623406 625.10448975 284.24750291 635 271 C633.85573734 269.186508 632.70954608 267.37423275 631.5625 265.5625 C630.60537109 264.04849609 630.60537109 264.04849609 629.62890625 262.50390625 C628.22350458 260.15446165 628.22350458 260.15446165 627 259 C625.2507128 258.90634994 623.49763746 258.88255562 621.74584961 258.88647461 C620.06421974 258.88658791 620.06421974 258.88658791 618.34861755 258.88670349 C617.1288472 258.89186478 615.90907684 258.89702606 614.65234375 258.90234375 C612.7899984 258.90446617 612.7899984 258.90446617 610.89002991 258.90663147 C607.58394509 258.91129409 604.27792854 258.92028503 600.97186279 258.93133545 C597.60038861 258.94155173 594.22890718 258.94618426 590.85742188 258.95117188 C584.23824261 258.96137721 577.61918347 258.98094894 571 259 C571 246.79 571 234.58 571 222 C581.5625 222.0625 581.5625 222.0625 584.84985352 222.09008789 C590.01374735 222.10481337 594.91356563 221.90599883 600 221 C597.19978048 215.92296648 594.13302465 211.20435799 590.75 206.5 C589.67889297 204.99665952 588.6086259 203.49272034 587.5390625 201.98828125 C586.96833008 201.18600098 586.39759766 200.3837207 585.80957031 199.55712891 C582.55228048 194.95420746 579.3405517 190.31962841 576.125 185.6875 C571.09663538 178.44894382 566.0586426 171.21743099 561 164 C555.9848666 156.84380694 550.98752284 149.67546249 546 142.5 C540.96935118 135.26308511 535.93063279 128.03198632 530.875 120.8125 C530.30450928 119.99765137 529.73401855 119.18280273 529.14624023 118.34326172 C526.28205816 114.25366331 523.41458476 110.1664132 520.54296875 106.08203125 C519.38256206 104.42986337 518.22240568 102.77751965 517.0625 101.125 C516.49684326 100.3194165 515.93118652 99.51383301 515.34838867 98.68383789 C512.13699503 94.09658558 508.96273057 89.48637608 505.8203125 84.8515625 C505.1305835 83.83433105 504.44085449 82.81709961 503.73022461 81.76904297 C502.38663571 79.78328699 501.04621036 77.79538619 499.70922852 75.80517578 C499.10780029 74.91556152 498.50637207 74.02594727 497.88671875 73.109375 C497.35264404 72.31499023 496.81856934 71.52060547 496.26831055 70.70214844 C495.84976807 70.14043945 495.43122559 69.57873047 495 69 C494.67 69 494.34 69 494 69 Z M142 229 C144.20104702 235.84941205 146.73421748 242.49939824 149.44921875 249.16015625 C150.07543877 250.70587563 150.07543877 250.70587563 150.71430969 252.28282166 C152.03611311 255.54377356 153.36174198 258.80315414 154.6875 262.0625 C155.58944684 264.28570421 156.49114209 266.5090105 157.39257812 268.73242188 C159.59214407 274.15613184 161.79484505 279.57856016 164 285 C167.67442131 285 168.39544117 284.15806403 171.1875 281.875 C171.99445313 281.23175781 172.80140625 280.58851563 173.6328125 279.92578125 C175.03185656 278.78761505 176.42506423 277.6420996 177.8046875 276.48046875 C184.48070927 271.09514452 192.30496236 267.67942334 200 264 C196.75863529 261.2896168 193.5042382 259.86055682 189.5625 258.375 C188.45003906 257.94960938 187.33757812 257.52421875 186.19140625 257.0859375 C183.0957549 255.9461261 183.0957549 255.9461261 180.15234375 255.4765625 C179.08693359 255.24066406 179.08693359 255.24066406 178 255 C177.505 254.01 177.505 254.01 177 253 C175.44516689 252.09499218 173.85444649 251.25131607 172.25 250.4375 C162.14491343 245.03763532 153.15685048 238.51089924 144.828125 230.65234375 C143.28705436 228.88824339 143.28705436 228.88824339 142 229 Z M246.9519043 279.87768555 C246.27357198 279.95369145 245.59523966 280.02969736 244.89635181 280.10800648 C234.1369806 281.45956682 224.09368591 285.38045653 214.1875 289.625 C213.17320923 290.05848755 213.17320923 290.05848755 212.13842773 290.50073242 C208.85526458 291.96481734 206.40806712 293.34109256 204 296 C201.91708539 297.34214574 199.78923086 298.57595837 197.64453125 299.81640625 C197.10183594 300.20699219 196.55914062 300.59757812 196 301 C196 301.66 196 302.32 196 303 C195.443125 303.226875 194.88625 303.45375 194.3125 303.6875 C191.35780143 305.36449108 189.28828856 307.53979339 187 310 C185.94425781 311.06541016 185.94425781 311.06541016 184.8671875 312.15234375 C184.12726563 312.92707031 183.38734375 313.70179688 182.625 314.5 C181.91601562 315.2321875 181.20703125 315.964375 180.4765625 316.71875 C178.72711618 318.88396471 178.72711618 318.88396471 179.30075073 321.3626709 C179.95686611 323.83731373 180.73759935 326.11293967 181.71142578 328.47851562 C182.06396423 329.34124588 182.41650269 330.20397614 182.77972412 331.09284973 C183.16436829 332.02127182 183.54901245 332.94969391 183.9453125 333.90625 C184.34671448 334.88538864 184.74811646 335.86452728 185.16168213 336.87333679 C186.47878612 340.08388432 187.80196571 343.29189232 189.125 346.5 C190.04690376 348.74498631 190.96828563 350.99018701 191.88916016 353.2355957 C193.2818599 356.63128089 194.67487457 360.0268327 196.06954956 363.42170715 C199.86693992 372.66537365 203.62911311 381.92287084 207.375 391.1875 C211.747255 401.9928878 216.13486549 412.79193412 220.53515625 423.5859375 C221.02113281 424.77812393 221.50710938 425.97031036 222.0078125 427.19862366 C224.41679759 433.10768121 226.82671692 439.01635588 229.23779297 444.92456055 C229.68687012 446.02582779 230.13594727 447.12709503 230.59863281 448.26173401 C231.47972063 450.42222603 232.36154143 452.58241928 233.24414062 454.74229431 C235.31772134 459.82622267 237.36823758 464.91717469 239.36767578 470.03076172 C239.7351442 470.96657578 240.10261261 471.90238983 240.48121643 472.86656189 C241.16611065 474.6159569 241.84526497 476.36761385 242.51768494 478.12184143 C243.85447148 482.29722902 243.85447148 482.29722902 247 485 C247.37060547 484.083396 247.74121094 483.16679199 248.12304688 482.22241211 C257.3466334 459.41595669 266.64156682 436.63969447 275.99267578 413.88525391 C279.28966093 405.86218357 282.58242558 397.83738123 285.875 389.8125 C286.20168671 389.01636292 286.52837341 388.22022583 286.86495972 387.39996338 C290.72982751 377.98082369 294.59060045 368.56001947 298.4453125 359.13671875 C298.81985565 358.22112183 299.1943988 357.3055249 299.58029175 356.36218262 C301.47220006 351.73676309 303.3633344 347.11102875 305.25341797 342.48486328 C309.02835551 333.24774045 312.81529407 324.01581098 316.625 314.79296875 C317.72984826 312.11441887 318.83444036 309.43576349 319.93896484 306.75708008 C320.63842599 305.06314806 321.3392412 303.36977444 322.04150391 301.67700195 C323.0101752 299.34202143 323.97427072 297.00519838 324.9375 294.66796875 C325.21996582 293.99082321 325.50243164 293.31367767 325.79345703 292.61601257 C327.50105063 288.45738482 328.83992833 284.33380639 330 280 C326.43439152 278.89692663 323.10932411 278.86671698 319.38989258 278.85473633 C318.73386551 278.85137772 318.07783844 278.8480191 317.40193176 278.84455872 C315.2327789 278.83506432 313.06370362 278.83310513 310.89453125 278.83203125 C309.37155629 278.82881323 307.84858163 278.82544876 306.3256073 278.82194519 C303.12534878 278.81595457 299.92511724 278.81410478 296.72485352 278.81469727 C292.67302351 278.81479788 288.62137276 278.80125109 284.56958485 278.78392506 C281.41634877 278.7726555 278.26315365 278.77078271 275.10989952 278.77130699 C273.61954835 278.77014517 272.12919545 278.76582774 270.63886452 278.75797462 C262.6865176 278.72005517 254.85847289 278.9769589 246.9519043 279.87768555 Z " fill="#0076FE" transform="translate(76,205)"/>
<path d="M0 0 C32.01 0 64.02 0 97 0 C97 77.22 97 154.44 97 234 C92.5 228.375 92.5 228.375 92.50780869 224.91770458 C92.49984449 224.13443552 92.4918803 223.35116646 92.48367476 222.54416198 C92.50115181 221.2703225 92.50115181 221.2703225 92.51898193 219.9707489 C92.51556423 219.05992815 92.51214653 218.1491074 92.50862527 217.21068603 C92.5020354 214.1579597 92.52404103 211.10611215 92.54589844 208.0534668 C92.54702667 205.86556519 92.54639352 203.67766207 92.54412842 201.48976135 C92.54297942 195.54796581 92.5665191 189.60649239 92.59442425 183.6647718 C92.6194068 177.45612194 92.62177743 171.24746494 92.62652588 165.03877258 C92.63825751 153.94940694 92.66715318 142.86017474 92.70509675 131.77087001 C92.73935511 121.70524556 92.76433435 111.63964485 92.78027344 101.57397461 C92.78184978 100.58127551 92.78184978 100.58127551 92.78345796 99.56852188 C92.78867818 96.24841143 92.79372398 92.92830075 92.79870558 89.60818994 C92.84053084 62.07204424 92.91090098 34.53603044 93 7 C91.7671804 7.16251975 90.53436081 7.3250395 89.26418304 7.49248409 C86.42041073 7.84710206 83.64226182 8.12447391 80.77307129 8.12025452 C80.03845673 8.12162918 79.30384216 8.12300385 78.54696655 8.12442017 C77.77156525 8.12082489 76.99616394 8.11722961 76.19726562 8.11352539 C75.35729034 8.11367142 74.51731506 8.11381744 73.65188599 8.1139679 C70.90331346 8.11327683 68.15481054 8.10552256 65.40625 8.09765625 C63.48954302 8.0957892 61.57283556 8.09436665 59.65612793 8.09336853 C54.63218855 8.08956595 49.60827846 8.07975512 44.58435059 8.06866455 C39.44946692 8.05840169 34.31457848 8.0538605 29.1796875 8.04882812 C19.11977885 8.03813068 9.05989187 8.0210816 -1 8 C-1.33 7.34 -1.66 6.68 -2 6 C-1.34 4.02 -0.68 2.04 0 0 Z " fill="#121212" transform="translate(441,477)"/>
<path d="M0 0 C1.74833004 0.0037422 3.49666221 0.00658344 5.24499512 0.00857544 C9.78881895 0.01611705 14.33250959 0.03568095 18.87628174 0.0579834 C23.53599243 0.07864912 28.19572519 0.08762092 32.85546875 0.09765625 C41.95578685 0.11893839 51.05600724 0.15295586 60.15625 0.1953125 C59.80568818 2.78946998 59.43013532 4.76421329 58.01699829 6.98851013 C55.16490879 8.83825433 52.75578497 8.53869615 49.38427734 8.50415039 C48.69913559 8.50137589 48.01399384 8.49860138 47.30809021 8.4957428 C45.81846421 8.48767283 44.32886358 8.47259521 42.83936691 8.45137215 C40.46522051 8.41758497 38.09154728 8.40191301 35.7171936 8.39073181 C31.51167283 8.36790586 27.30648064 8.32890971 23.10113525 8.284729 C16.421375 8.21476643 9.74166232 8.1586918 3.06163406 8.12237358 C0.75267092 8.10598672 -1.55584446 8.0763848 -3.86465454 8.04566956 C-11.27713202 7.97698519 -18.5577335 8.21877539 -25.92724609 9.06030273 C-26.9392681 9.17432859 -26.9392681 9.17432859 -27.971735 9.290658 C-39.64158651 10.77525673 -50.50509499 15.24605733 -61.1484375 20.05859375 C-63.84375 21.1953125 -63.84375 21.1953125 -65.84375 21.1953125 C-66.17375 22.1853125 -66.50375 23.1753125 -66.84375 24.1953125 C-68.734375 25.40625 -68.734375 25.40625 -71.09375 26.5703125 C-75.03883773 28.63678703 -77.77136484 30.9421988 -80.84375 34.1953125 C-82.32875 34.6903125 -82.32875 34.6903125 -83.84375 35.1953125 C-84.55117661 36.50747477 -85.2117774 37.84518922 -85.84375 39.1953125 C-86.96679892 40.64680025 -88.13596983 42.0635301 -89.34375 43.4453125 C-89.9521875 44.15171875 -90.560625 44.858125 -91.1875 45.5859375 C-92.84375 47.1953125 -92.84375 47.1953125 -94.84375 47.1953125 C-95.50375 45.2153125 -96.16375 43.2353125 -96.84375 41.1953125 C-93.64284451 37.67026468 -90.4269743 34.16010409 -87.19335938 30.66503906 C-86.13079638 29.50790642 -85.08552613 28.33489324 -84.046875 27.15625 C-62.89867221 4.15485418 -29.40215811 -0.18828377 0 0 Z " fill="#070708" transform="translate(348.84375,476.8046875)"/>
<path d="M0 0 C51.48 0 102.96 0 156 0 C154 6 154 6 153 8 C135.56152226 8.16420982 118.12328903 8.28729514 100.68421268 8.3626852 C92.58519053 8.3986354 84.48665137 8.44756414 76.38793945 8.52807617 C69.32128478 8.59829411 62.25498021 8.64311231 55.18798631 8.65861946 C51.45290151 8.667671 47.71881742 8.6886296 43.98405647 8.7401104 C28.21854797 8.94934779 14.03282411 9.08973969 0 1 C0 0.67 0 0.34 0 0 Z " fill="#090909" transform="translate(354,232)"/>
<path d="M0 0 C2.65081059 2.65081059 2.72837774 4.2907976 3 8 C2.14453125 10.97265625 2.14453125 10.97265625 0.8125 14.0625 C-1.8741527 20.62000493 -4.02640964 27.19709383 -6 34 C-6.1959375 34.6609668 -6.391875 35.32193359 -6.59375 36.00292969 C-18.36693317 75.82940088 -22.35987892 118.24847373 -24.2734375 159.59765625 C-24.3132373 160.45415771 -24.35303711 161.31065918 -24.39404297 162.19311523 C-24.46134726 163.73785733 -24.52114218 165.28295915 -24.57080078 166.82836914 C-24.77773655 171.87937553 -25.09914483 177.27520315 -27 182 C-31.99976224 183.66658741 -37.21575765 183.22509077 -42.45166016 183.24023438 C-44.49292352 183.24996626 -46.53319043 183.28101631 -48.57421875 183.3125 C-49.85941406 183.31765625 -51.14460937 183.3228125 -52.46875 183.328125 C-53.64888672 183.3374707 -54.82902344 183.34681641 -56.04492188 183.35644531 C-59 183 -59 183 -60.88769531 181.73339844 C-62.24145238 179.62372435 -62.36096195 178.43310804 -62.328125 175.9375 C-62.32361328 175.14512939 -62.31910156 174.35275879 -62.31445312 173.53637695 C-62.29318359 172.69937256 -62.27191406 171.86236816 -62.25 171 C-62.23904297 170.14946045 -62.22808594 169.2989209 -62.21679688 168.42260742 C-62.10883778 162.25309708 -61.77082278 156.12528814 -61 150 C-60.01 150 -59.02 150 -58 150 C-57.97196111 151.72906484 -57.95315918 153.45827874 -57.9375 155.1875 C-57.92009766 156.63189453 -57.92009766 156.63189453 -57.90234375 158.10546875 C-58.04380841 163.74707929 -58.56717221 169.37323878 -59 175 C-49.1 175 -39.2 175 -29 175 C-29 170.38 -29 165.76 -29 161 C-28.86469117 157.85781096 -28.70794698 154.73979637 -28.484375 151.60546875 C-28.42881439 150.78272964 -28.37325378 149.95999054 -28.31600952 149.11231995 C-28.13428201 146.47016822 -27.94346994 143.82881652 -27.75 141.1875 C-27.68375427 140.27125854 -27.61750854 139.35501709 -27.54925537 138.41101074 C-26.26625137 120.85799545 -24.47563085 103.42463254 -22 86 C-21.73364746 84.11547119 -21.73364746 84.11547119 -21.46191406 82.19287109 C-17.51079816 54.96820347 -12.41501777 24.83003554 0 0 Z " fill="#090A0A" transform="translate(233,551)"/>
<path d="M0 0 C0.33 0 0.66 0 1 0 C1 67.65 1 135.3 1 205 C-0.32 205 -1.64 205 -3 205 C-3.07007651 179.30492147 -3.12298156 153.60985725 -3.15543652 127.91470242 C-3.17090635 115.9840367 -3.19199817 104.05343035 -3.22631836 92.12280273 C-3.25621706 81.72424962 -3.27557416 71.3257395 -3.28226548 60.92714459 C-3.28617692 55.42100996 -3.29537193 49.91499834 -3.31719017 44.40890312 C-3.33756265 39.22563615 -3.34383221 34.04254279 -3.33932304 28.85923958 C-3.3401479 26.95774009 -3.34610896 25.05623475 -3.35761642 23.1547699 C-3.37257244 20.55584323 -3.36894231 17.95756953 -3.36076355 15.35862732 C-3.36950207 14.60860945 -3.3782406 13.85859157 -3.38724393 13.08584589 C-3.34365005 7.95039099 -2.23999946 4.51438646 0 0 Z " fill="#121212" transform="translate(537,245)"/>
<path d="M0 0 C32.01 0 64.02 0 97 0 C97 8.91 97 17.82 97 27 C95.68 26.67 94.36 26.34 93 26 C93 19.73 93 13.46 93 7 C90.36 7.33 87.72 7.66 85 8 C83.59241938 8.07441525 82.18261609 8.12232738 80.77307129 8.12025452 C80.03845673 8.12162918 79.30384216 8.12300385 78.54696655 8.12442017 C77.77156525 8.12082489 76.99616394 8.11722961 76.19726562 8.11352539 C75.35729034 8.11367142 74.51731506 8.11381744 73.65188599 8.1139679 C70.90331346 8.11327683 68.15481054 8.10552256 65.40625 8.09765625 C63.48954302 8.0957892 61.57283556 8.09436665 59.65612793 8.09336853 C54.63218855 8.08956595 49.60827846 8.07975512 44.58435059 8.06866455 C39.44946692 8.05840169 34.31457848 8.0538605 29.1796875 8.04882812 C19.11977885 8.03813068 9.05989187 8.0210816 -1 8 C-1.33 7.34 -1.66 6.68 -2 6 C-1.34 4.02 -0.68 2.04 0 0 Z " fill="#050505" transform="translate(441,477)"/>
<path d="M0 0 C0.639375 0.639375 1.27875 1.27875 1.9375 1.9375 C2.40027344 2.39640625 2.86304688 2.8553125 3.33984375 3.328125 C4.53499594 4.53171356 5.71270635 5.75271273 6.87890625 6.984375 C25.86119183 26.70078212 50.32293474 38.51596342 76 47 C72.13092525 49.57938317 68.91285514 51.21017463 64.19140625 50.69140625 C43.46424484 46.20094411 20.2521122 32.03423761 6.28125 16.03125 C4.6330595 13.41826506 3.48178124 10.73324304 2.3125 7.875 C1.87550781 6.82054687 1.43851563 5.76609375 0.98828125 4.6796875 C0 2 0 2 0 0 Z " fill="#07090B" transform="translate(211,417)"/>
<path d="M0 0 C0.99 0.33 1.98 0.66 3 1 C2.67386719 1.8971875 2.34773437 2.794375 2.01171875 3.71875 C-2.49667662 16.45686556 -5.41940949 29.45288809 -6 43 C-6.02723145 43.63067383 -6.05446289 44.26134766 -6.08251953 44.91113281 C-6.52689143 56.911969 -5.28610504 68.23032737 -3 80 C-2.87141602 80.70979004 -2.74283203 81.41958008 -2.61035156 82.15087891 C0.57752685 99.48953056 7.48989793 117.19830707 18.62109375 131.01171875 C20.79166155 134.14151765 21.19844835 137.30053086 22 141 C21.01 140.67 20.02 140.34 19 140 C18.3125 137.9375 18.3125 137.9375 18 136 C17.34 136 16.68 136 16 136 C15.505 134.02 15.505 134.02 15 132 C14.34 132 13.68 132 13 132 C12.32845067 130.71086513 11.66291141 129.41859796 11 128.125 C10.62875 127.40570313 10.2575 126.68640625 9.875 125.9453125 C9 124 9 124 9 122 C8.34 122 7.68 122 7 122 C4.55302334 117.63799813 3.49730652 113.97306516 3 109 C2.34 109 1.68 109 1 109 C-3.91626933 95.25083345 -6.65452752 81.68051697 -8.61450195 67.22045898 C-8.8957688 64.9687725 -8.8957688 64.9687725 -10 63 C-11.62897854 41.68365221 -8.47773804 19.68628593 0 0 Z " fill="#0068DF" transform="translate(191,282)"/>
<path d="M0 0 C0.66 0 1.32 0 2 0 C0.66883736 4.64739238 -0.72947271 9.26396862 -2.32421875 13.828125 C-16.91989697 55.7558376 -22.22321991 100.78752002 -24.78222656 144.93920898 C-25 147 -25 147 -26 150 C-26.66 150 -27.32 150 -28 150 C-29.04715859 145.87890857 -28.95106061 142.35343257 -28.58203125 138.12890625 C-28.52491974 137.46243576 -28.46780823 136.79596527 -28.40896606 136.10929871 C-28.21852307 133.9261936 -28.01629924 131.74439612 -27.8125 129.5625 C-27.74475372 128.81367554 -27.67700745 128.06485107 -27.60720825 127.29333496 C-26.20091406 111.79425647 -24.20856613 96.40447129 -22 81 C-21.83064941 79.78376953 -21.66129883 78.56753906 -21.48681641 77.31445312 C-20.62766464 71.17555673 -19.72598304 65.0766116 -18.5 59 C-18.2628125 57.80375 -18.025625 56.6075 -17.78125 55.375 C-17 52 -17 52 -16.07421875 49.23046875 C-14.86978623 45.60841168 -13.9636942 41.96030182 -13.04589844 38.25708008 C-9.82578364 25.32838349 -6.35931014 11.8146007 0 0 Z " fill="#212121" transform="translate(201,549)"/>
<path d="M0 0 C66.66 0 133.32 0 202 0 C202 0.33 202 0.66 202 1 C169.99 1 137.98 1 105 1 C104.67 2.98 104.34 4.96 104 7 C93.11 7 82.22 7 71 7 C71.66 5.02 72.32 3.04 73 1 C48.91 1 24.82 1 0 1 C0 0.67 0 0.34 0 0 Z " fill="#006EEB" transform="translate(336,476)"/>
<path d="M0 0 C1.32 0.33 2.64 0.66 4 1 C4 23.44 4 45.88 4 69 C3.34 68.34 2.68 67.68 2 67 C2 65.68 2 64.36 2 63 C1.34 63 0.68 63 0 63 C0 42.21 0 21.42 0 0 Z " fill="#0C0C0C" transform="translate(534,503)"/>
<path d="M0 0 C0.33 0 0.66 0 1 0 C1 23.43 1 46.86 1 71 C0.34 70.34 -0.32 69.68 -1 69 C-1 67.68 -1 66.36 -1 65 C-1.66 65 -2.32 65 -3 65 C-3.06971429 57.55869747 -3.12291946 50.11746614 -3.15543652 42.67590237 C-3.17104837 39.21993354 -3.19220356 35.76418925 -3.22631836 32.30834961 C-3.26534939 28.32929228 -3.27974632 24.35032378 -3.29296875 20.37109375 C-3.30845261 19.13854355 -3.32393646 17.90599335 -3.33988953 16.63609314 C-3.34112453 10.31002282 -3.09982384 5.57396236 0 0 Z " fill="#0C0C0C" transform="translate(537,245)"/>
<path d="M0 0 C2.65081059 2.65081059 2.72837774 4.2907976 3 8 C2.14453125 10.97265625 2.14453125 10.97265625 0.8125 14.0625 C-2.20231293 21.41731835 -4.50509317 28.86106877 -6.72412109 36.48925781 C-7.25324799 38.3072499 -7.78477908 40.12454383 -8.31860352 41.94116211 C-8.84976652 43.7501396 -9.37514574 45.56082697 -9.89428711 47.37329102 C-10.13800049 48.20272217 -10.38171387 49.03215332 -10.6328125 49.88671875 C-10.84824707 50.63139404 -11.06368164 51.37606934 -11.28564453 52.14331055 C-12 54 -12 54 -14 56 C-14.66 56 -15.32 56 -16 56 C-15.39399344 48.66655352 -13.8660286 41.84364507 -11.9375 34.75 C-11.63384521 33.62352051 -11.33019043 32.49704102 -11.01733398 31.33642578 C-8.04051902 20.60841648 -4.20877046 10.29782279 0 0 Z " fill="#111418" transform="translate(233,551)"/>
<path d="M0 0 C0.66 0.66 1.32 1.32 2 2 C5.91563148 3.07817955 9.78709075 3.1916724 13.83203125 3.31640625 C15.12431641 3.35830078 16.41660156 3.40019531 17.74804688 3.44335938 C19.10286192 3.48316352 20.45767967 3.52287591 21.8125 3.5625 C23.18686105 3.60573723 24.56121024 3.64935312 25.93554688 3.69335938 C29.29026669 3.7992979 32.6450586 3.90137189 36 4 C35.25 8.75 35.25 8.75 33 11 C30.3737793 11.24291992 30.3737793 11.24291992 27.07421875 11.23046875 C25.88505859 11.22853516 24.69589844 11.22660156 23.47070312 11.22460938 C22.22224609 11.21236328 20.97378906 11.20011719 19.6875 11.1875 C18.45064453 11.18685547 17.21378906 11.18621094 15.93945312 11.18554688 C4.99350407 11.13232508 4.99350407 11.13232508 1 10 C-0.60725635 6.78548731 -0.05748185 3.56387464 0 0 Z " fill="#0C0C0C" transform="translate(534,723)"/>
<path d="M0 0 C0.66 0 1.32 0 2 0 C4.30287165 5.51712915 4.3223067 10.59602567 4.3359375 16.47265625 C4.3425943 17.47332626 4.3492511 18.47399628 4.35610962 19.50498962 C4.36620549 21.61374073 4.37092759 23.72252358 4.37060547 25.83129883 C4.37499032 29.05538283 4.41137502 32.27810995 4.44921875 35.50195312 C4.45508521 37.55468283 4.45905574 39.60741902 4.4609375 41.66015625 C4.47530853 42.62172134 4.48967957 43.58328644 4.50448608 44.57398987 C4.49833282 45.47520065 4.49217957 46.37641144 4.48583984 47.30493164 C4.48868988 48.09291641 4.49153992 48.88090118 4.49447632 49.69276428 C4 52 4 52 0 57 C0 38.19 0 19.38 0 0 Z " fill="#212121" transform="translate(534,566)"/>
<path d="M0 0 C0.66 0 1.32 0 2 0 C4.30287165 5.51712915 4.3223067 10.59602567 4.3359375 16.47265625 C4.3425943 17.47332626 4.3492511 18.47399628 4.35610962 19.50498962 C4.36620549 21.61374073 4.37092759 23.72252358 4.37060547 25.83129883 C4.37499032 29.05538283 4.41137502 32.27810995 4.44921875 35.50195312 C4.45508521 37.55468283 4.45905574 39.60741902 4.4609375 41.66015625 C4.47530853 42.62172134 4.48967957 43.58328644 4.50448608 44.57398987 C4.49833282 45.47520065 4.49217957 46.37641144 4.48583984 47.30493164 C4.48868988 48.09291641 4.49153992 48.88090118 4.49447632 49.69276428 C4 52 4 52 0 57 C0 38.19 0 19.38 0 0 Z " fill="#212121" transform="translate(534,310)"/>
<path d="M0 0 C0.99 0.33 1.98 0.66 3 1 C2.67386719 1.8971875 2.34773437 2.794375 2.01171875 3.71875 C-4.21150166 21.30196847 -6.19299753 38.56650679 -6.0625 57.1875 C-6.05798828 58.42564453 -6.05347656 59.66378906 -6.04882812 60.93945312 C-6.03716699 63.95968785 -6.02080236 66.97981677 -6 70 C-8.63453536 66.04819696 -10.25132924 63.37537204 -10.265625 58.578125 C-10.26997559 57.72605469 -10.27432617 56.87398438 -10.27880859 55.99609375 C-10.26930176 55.08988281 -10.25979492 54.18367188 -10.25 53.25 C-10.24178223 52.30769531 -10.23356445 51.36539063 -10.22509766 50.39453125 C-9.95223296 33.09549631 -6.88149534 15.97962619 0 0 Z " fill="#171717" transform="translate(191,282)"/>
<path d="M0 0 C10.56 0 21.12 0 32 0 C31.67 1.98 31.34 3.96 31 6 C20.11 6 9.22 6 -2 6 C-1.34 4.02 -0.68 2.04 0 0 Z " fill="#0061CF" transform="translate(409,477)"/>
<path d="M0 0 C9.24 0 18.48 0 28 0 C28 13 28 13 26 16 C26.33 12.37 26.66 8.74 27 5 C17.43 5 7.86 5 -2 5 C-1.34 3.35 -0.68 1.7 0 0 Z " fill="#0061D0" transform="translate(510,232)"/>
<path d="M0 0 C0.99 0.33 1.98 0.66 3 1 C2.9498877 1.56058105 2.89977539 2.12116211 2.84814453 2.69873047 C2.6054936 5.42401409 2.36492916 8.14947537 2.125 10.875 C2.03549072 11.89045898 1.94598145 12.90591797 1.85375977 13.95214844 C1.35326748 19.7027829 0.88353399 25.45431579 0.45703125 31.2109375 C0.3698584 32.38543457 0.28268555 33.55993164 0.19287109 34.77001953 C0.02445715 37.06502176 -0.14065656 39.36026889 -0.30224609 41.65576172 C-0.37910645 42.7026416 -0.4559668 43.74952148 -0.53515625 44.828125 C-0.600979 45.7552832 -0.66680176 46.68244141 -0.73461914 47.63769531 C-1 50 -1 50 -2 53 C-2.66 53 -3.32 53 -4 53 C-5.12101633 48.69907358 -4.90989545 44.97674921 -4.51171875 40.56640625 C-4.41682915 39.49482521 -4.41682915 39.49482521 -4.32002258 38.40159607 C-4.18460124 36.88924876 -4.04570671 35.37720895 -3.90356445 33.86547852 C-3.69118081 31.60173281 -3.49012914 29.33721273 -3.29101562 27.07226562 C-2.47529709 17.99800248 -1.39298335 9.00628037 0 0 Z " fill="#181818" transform="translate(177,646)"/>
<path d="M0 0 C0.33 0 0.66 0 1 0 C2.65776005 5.06792735 3.23859717 9.29465204 3.1953125 14.68359375 C3.1924826 15.38396255 3.18965271 16.08433136 3.18673706 16.80592346 C3.17564885 19.0166317 3.15056703 21.22691671 3.125 23.4375 C3.11495546 24.94725972 3.1058322 26.45702588 3.09765625 27.96679688 C3.07574714 31.64466597 3.04129758 35.3222916 3 39 C-0.33454534 35.58583481 -1.45746218 33.2283456 -1.47883606 28.42779541 C-1.46132797 27.73490417 -1.44381989 27.04201294 -1.42578125 26.328125 C-1.42084908 25.24359039 -1.42084908 25.24359039 -1.41581726 24.137146 C-1.40543645 22.61754273 -1.38555448 21.09797784 -1.35668945 19.57861328 C-1.31237846 17.2435955 -1.29521593 14.9096061 -1.28320312 12.57421875 C-1.26978805 11.09633919 -1.25486756 9.61847237 -1.23828125 8.140625 C-1.23089432 7.43963684 -1.22350739 6.73864868 -1.21589661 6.01641846 C-1.11834696 1.11834696 -1.11834696 1.11834696 0 0 Z " fill="#2F2F2F" transform="translate(535,672)"/>
<path d="M0 0 C0.33 0 0.66 0 1 0 C3.5951959 6.8762474 3.22410999 13.66816318 3.125 20.9375 C3.11597656 22.19369141 3.10695313 23.44988281 3.09765625 24.74414062 C3.07419249 27.82962522 3.04136201 30.91471205 3 34 C1.68 34 0.36 34 -1 34 C-1.02465288 29.31860746 -1.04283739 24.63725241 -1.05493164 19.95581055 C-1.05997157 18.36205386 -1.0668035 16.76830181 -1.07543945 15.17456055 C-1.08751999 12.88849747 -1.09323155 10.60249533 -1.09765625 8.31640625 C-1.10281754 7.59973282 -1.10797882 6.88305939 -1.11329651 6.14466858 C-1.11349263 4.42936328 -1.06192007 2.71418734 -1 1 C-0.67 0.67 -0.34 0.34 0 0 Z " fill="#2F2F2F" transform="translate(535,416)"/>
<path d="M0 0 C0.66 0.33 1.32 0.66 2 1 C1.55588198 5.45987053 1.09231797 9.9175055 0.625 14.375 C0.49867188 15.64601563 0.37234375 16.91703125 0.2421875 18.2265625 C0.11328125 19.43828125 -0.015625 20.65 -0.1484375 21.8984375 C-0.26364746 23.01911621 -0.37885742 24.13979492 -0.49755859 25.29443359 C-1 28 -1 28 -3 30 C-3.66 29.67 -4.32 29.34 -5 29 C-5.10402152 22.55716721 -4.73459309 16.33540878 -4 9.9375 C-3.85691406 8.6390918 -3.85691406 8.6390918 -3.7109375 7.31445312 C-3.47830736 5.20915031 -3.23978031 3.10450044 -3 1 C-2.01 0.67 -1.02 0.34 0 0 Z " fill="#0F1112" transform="translate(212,650)"/>
<path d="M0 0 C1.65 0 3.3 0 5 0 C0.96127563 16.8929385 0.96127563 16.8929385 -2 24 C-2.99 24 -3.98 24 -5 24 C-4.41640925 15.68383188 -2.26200586 7.98540674 0 0 Z " fill="#050506" transform="translate(222,583)"/>
<path d="M0 0 C0.99 0.99 1.98 1.98 3 3 C2.319375 3.598125 1.63875 4.19625 0.9375 4.8125 C-7.67026114 13.44471501 -12.87147253 25.15306424 -15 37 C-17 34 -17 34 -18 31 C-17.10717773 28.67504883 -17.10717773 28.67504883 -15.68359375 25.95703125 C-15.16603516 24.96509766 -14.64847656 23.97316406 -14.11523438 22.95117188 C-13.56158203 21.91541016 -13.00792969 20.87964844 -12.4375 19.8125 C-11.91091797 18.79607422 -11.38433594 17.77964844 -10.84179688 16.73242188 C-7.68207311 10.74170937 -4.27728367 5.25599231 0 0 Z " fill="#0064D6" transform="translate(251,519)"/>
<path d="M0 0 C0.99 0 1.98 0 3 0 C3.11589162 4.27060618 3.18714802 8.54080984 3.25 12.8125 C3.28351563 14.02744141 3.31703125 15.24238281 3.3515625 16.49414062 C3.36445313 17.65751953 3.37734375 18.82089844 3.390625 20.01953125 C3.41157227 21.09307861 3.43251953 22.16662598 3.45410156 23.27270508 C3 26 3 26 0.97558594 27.8737793 C0.32364258 28.24543213 -0.32830078 28.61708496 -1 29 C-1.19148936 9.65957447 -1.19148936 9.65957447 0 0 Z " fill="#141414" transform="translate(172,701)"/>
<path d="M0 0 C0.66 0 1.32 0 2 0 C-0.48186751 8.66476551 -3.35161928 17.20108875 -6.24609375 25.73486328 C-6.7759064 27.32670322 -7.28733417 28.92472283 -7.78515625 30.52685547 C-8.04167969 31.3417041 -8.29820312 32.15655273 -8.5625 32.99609375 C-8.79066406 33.73915771 -9.01882812 34.48222168 -9.25390625 35.24780273 C-10 37 -10 37 -12 38 C-11.39810504 32.93623153 -10.31573798 28.2340628 -8.75 23.375 C-8.42273926 22.34318604 -8.42273926 22.34318604 -8.08886719 21.29052734 C-5.77305361 14.10289137 -3.38017135 6.76034271 0 0 Z " fill="#2F2F2F" transform="translate(201,549)"/>
<path d="M0 0 C0.99 0.33 1.98 0.66 3 1 C2.67386719 1.8971875 2.34773437 2.794375 2.01171875 3.71875 C-1.28315556 13.03846529 -3.42388903 22.24861426 -5 32 C-5.99 31.67 -6.98 31.34 -8 31 C-7.13507134 20.40462389 -4.00685949 9.81680576 0 0 Z " fill="#141414" transform="translate(191,282)"/>
<path d="M0 0 C0.33 0 0.66 0 1 0 C1.40997831 19.77006508 1.40997831 19.77006508 -1 27 C-1.66 27 -2.32 27 -3 27 C-4.37019655 22.18973552 -3.7666087 17.81855904 -3.1875 12.9375 C-3.10435547 12.13505859 -3.02121094 11.33261719 -2.93554688 10.50585938 C-2.84724609 9.72919922 -2.75894531 8.95253906 -2.66796875 8.15234375 C-2.58828857 7.45101318 -2.5086084 6.74968262 -2.42651367 6.02709961 C-1.95224515 3.77303463 -1.10714128 2.01090706 0 0 Z " fill="#080808" transform="translate(176,672)"/>
<path d="M0 0 C0.66 0 1.32 0 2 0 C3.80679587 4.62369023 4.21839082 8.42528653 4.125 13.375 C4.10695313 14.62023437 4.08890625 15.86546875 4.0703125 17.1484375 C4.04710937 18.08945312 4.02390625 19.03046875 4 20 C3.34 20 2.68 20 2 20 C1.34 21.32 0.68 22.64 0 24 C0 16.08 0 8.16 0 0 Z " fill="#272727" transform="translate(534,566)"/>
<path d="M0 0 C0.66 0 1.32 0 2 0 C3.80679587 4.62369023 4.21839082 8.42528653 4.125 13.375 C4.10695313 14.62023437 4.08890625 15.86546875 4.0703125 17.1484375 C4.04710937 18.08945312 4.02390625 19.03046875 4 20 C3.34 20 2.68 20 2 20 C1.34 21.32 0.68 22.64 0 24 C0 16.08 0 8.16 0 0 Z " fill="#272727" transform="translate(534,310)"/>
<path d="M0 0 C0.99 0.33 1.98 0.66 3 1 C3 1.66 3 2.32 3 3 C2.34 3 1.68 3 1 3 C1.99 4.485 1.99 4.485 3 6 C3.1171875 9.06640625 3.1171875 9.06640625 2.875 12.5625 C2.81054688 13.71878906 2.74609375 14.87507812 2.6796875 16.06640625 C2 19 2 19 -0.0546875 20.40234375 C-1.01761719 20.69818359 -1.01761719 20.69818359 -2 21 C-2.28100502 13.83437211 -1.20443195 7.05453001 0 0 Z " fill="#111213" transform="translate(212,630)"/>
<path d="M0 0 C0.33 0 0.66 0 1 0 C1 6.27 1 12.54 1 19 C-0.32 18.67 -1.64 18.34 -3 18 C-3.08150744 15.93816367 -3.1394194 13.87538651 -3.1875 11.8125 C-3.22230469 10.66394531 -3.25710938 9.51539063 -3.29296875 8.33203125 C-2.97545546 4.72084678 -2.15237035 2.87886312 0 0 Z " fill="#101010" transform="translate(537,618)"/>
<path d="M0 0 C0.33 0 0.66 0 1 0 C1 6.27 1 12.54 1 19 C-0.32 18.67 -1.64 18.34 -3 18 C-3.08150744 15.93816367 -3.1394194 13.87538651 -3.1875 11.8125 C-3.22230469 10.66394531 -3.25710938 9.51539063 -3.29296875 8.33203125 C-2.97545546 4.72084678 -2.15237035 2.87886312 0 0 Z " fill="#101010" transform="translate(537,362)"/>
<path d="M0 0 C1.32 0.33 2.64 0.66 4 1 C4 4.63 4 8.26 4 12 C2.02 12.99 2.02 12.99 0 14 C0 9.38 0 4.76 0 0 Z " fill="#191919" transform="translate(204,712)"/>
<path d="M0 0 C0.33 0 0.66 0 1 0 C4.31707317 10.36585366 4.31707317 10.36585366 1.5625 15.875 C1.046875 16.57625 0.53125 17.2775 0 18 C-0.33 18 -0.66 18 -1 18 C-1.02684312 15.18743719 -1.04676188 12.37512759 -1.0625 9.5625 C-1.07087891 8.76005859 -1.07925781 7.95761719 -1.08789062 7.13085938 C-1.0965143 5.08704779 -1.0522815 3.04316098 -1 1 C-0.67 0.67 -0.34 0.34 0 0 Z " fill="#303030" transform="translate(535,672)"/>
<path d="M0 0 C1.15903767 3.46889289 0.85595132 6.05672028 0.1875 9.625 C-0.06966797 11.06746094 -0.06966797 11.06746094 -0.33203125 12.5390625 C-1 15 -1 15 -3 17 C-3.33 16.01 -3.66 15.02 -4 14 C-3.34 14 -2.68 14 -2 14 C-2 13.34 -2 12.68 -2 12 C-2.99 11.67 -3.98 11.34 -5 11 C-4.50769231 4.6 -4.50769231 4.6 -1.9375 1.5625 C-0.9784375 0.7890625 -0.9784375 0.7890625 0 0 Z " fill="#1D1F21" transform="translate(217,619)"/>
<path d="M0 0 C0.33 0 0.66 0 1 0 C4.31707317 10.36585366 4.31707317 10.36585366 1.5625 15.875 C1.046875 16.57625 0.53125 17.2775 0 18 C-0.33 18 -0.66 18 -1 18 C-1.02684312 15.18743719 -1.04676188 12.37512759 -1.0625 9.5625 C-1.07087891 8.76005859 -1.07925781 7.95761719 -1.08789062 7.13085938 C-1.0965143 5.08704779 -1.0522815 3.04316098 -1 1 C-0.67 0.67 -0.34 0.34 0 0 Z " fill="#303030" transform="translate(535,416)"/>
<path d="M0 0 C1.75795697 3.51591395 0.07344131 7.34843661 -0.75 11.0625 C-1.00523437 12.32416992 -1.00523437 12.32416992 -1.265625 13.61132812 C-1.4409375 14.41119141 -1.61625 15.21105469 -1.796875 16.03515625 C-1.95510742 16.7712915 -2.11333984 17.50742676 -2.27636719 18.26586914 C-2.51516602 18.83813232 -2.75396484 19.41039551 -3 20 C-3.99 20.33 -4.98 20.66 -6 21 C-6.21540485 16.47649806 -5.52625797 13.23960547 -4 9 C-3.65642494 7.5649134 -3.32337162 6.12727365 -3 4.6875 C-2.67 3.470625 -2.34 2.25375 -2 1 C-1.34 0.67 -0.68 0.34 0 0 Z " fill="#080808" transform="translate(190,586)"/>
<path d="M0 0 C2.61020066 2.61020066 2.63751674 4.37516738 3 8 C2.5625 10.375 2.5625 10.375 2 12 C0.02 12 -1.96 12 -4 12 C-3.52309796 10.37433394 -3.04340334 8.74948689 -2.5625 7.125 C-2.29566406 6.22007812 -2.02882812 5.31515625 -1.75390625 4.3828125 C-1 2 -1 2 0 0 Z " fill="#030508" transform="translate(233,551)"/>
<path d="M0 0 C0.99 0.33 1.98 0.66 3 1 C2.62488281 1.43570313 2.24976563 1.87140625 1.86328125 2.3203125 C0.79196524 3.5670329 -0.27689267 4.81586829 -1.34375 6.06640625 C-2.35606462 7.24823582 -3.37526891 8.42426235 -4.40625 9.58984375 C-7.2370891 12.84358259 -9.2243726 16.07492891 -11 20 C-11.66015625 18.26953125 -11.66015625 18.26953125 -12 16 C-10.99609375 13.88671875 -10.99609375 13.88671875 -9.4375 11.6875 C-8.88707031 10.90890625 -8.33664063 10.1303125 -7.76953125 9.328125 C-5.30796543 6.0895086 -2.71058379 3.03327234 0 0 Z " fill="#006EEC" transform="translate(252,523)"/>
<path d="M0 0 C2 2 2 2 2.1953125 4.1640625 C2.17210937 4.97617187 2.14890625 5.78828125 2.125 6.625 C2.10695312 7.44226563 2.08890625 8.25953125 2.0703125 9.1015625 C2.03550781 10.04128906 2.03550781 10.04128906 2 11 C1.01 11.33 0.02 11.66 -1 12 C-1.33 12.66 -1.66 13.32 -2 14 C-2.05437607 12.41705218 -2.09296271 10.83355744 -2.125 9.25 C-2.14820313 8.36828125 -2.17140625 7.4865625 -2.1953125 6.578125 C-1.99139502 3.8864142 -1.36551721 2.30095026 0 0 Z " fill="#040404" transform="translate(208,678)"/>
<path d="M0 0 C2 2 2 2 2.046875 4.3125 C1.94890625 5.199375 1.8509375 6.08625 1.75 7 C1.61851562 8.3303125 1.61851562 8.3303125 1.484375 9.6875 C1 12 1 12 -1 14 C-1.66 13.67 -2.32 13.34 -3 13 C-3.4726477 4.80743982 -3.4726477 4.80743982 -1.5 1.4375 C-0.7575 0.7259375 -0.7575 0.7259375 0 0 Z " fill="#222324" transform="translate(210,666)"/>
<path d="M0 0 C0.33 0 0.66 0 1 0 C0.03644647 11.52164009 0.03644647 11.52164009 -1 17 C-2.55078125 15.359375 -2.55078125 15.359375 -4 13 C-3.85546875 10.203125 -3.85546875 10.203125 -3.1875 7.25 C-2.86845703 5.77273438 -2.86845703 5.77273438 -2.54296875 4.265625 C-2.36378906 3.51796875 -2.18460938 2.7703125 -2 2 C-1.34 2 -0.68 2 0 2 C0 1.34 0 0.68 0 0 Z " fill="#0F0F0F" transform="translate(185,605)"/>
<path d="M0 0 C1.32 0.33 2.64 0.66 4 1 C4 4.3 4 7.6 4 11 C2.68 11 1.36 11 0 11 C0 7.37 0 3.74 0 0 Z " fill="#202020" transform="translate(534,503)"/>
<path d="M0 0 C0.99 0 1.98 0 3 0 C3.91657981 5.38490641 4.11138159 10.54230189 4 16 C1.24138882 11.86208323 -0.27302852 9.28296982 -0.125 4.25 C-0.10695312 3.45078125 -0.08890625 2.6515625 -0.0703125 1.828125 C-0.04710937 1.22484375 -0.02390625 0.6215625 0 0 Z " fill="#0B0B0B" transform="translate(181,336)"/>
<path d="M0 0 C0.99 0.33 1.98 0.66 3 1 C1.35 5.95 -0.3 10.9 -2 16 C-2.99 16 -3.98 16 -5 16 C-4.54548816 14.26982492 -4.08621143 12.54090123 -3.625 10.8125 C-3.36976563 9.84957031 -3.11453125 8.88664062 -2.8515625 7.89453125 C-2.05233704 5.17789793 -1.0968638 2.60862825 0 0 Z " fill="#262626" transform="translate(191,282)"/>
<path d="M0 0 C0.33 0 0.66 0 1 0 C1 4.62 1 9.24 1 14 C-3.5 8.375 -3.5 8.375 -3 3 C-2.34 3 -1.68 3 -1 3 C-0.67 2.01 -0.34 1.02 0 0 Z " fill="#191919" transform="translate(537,697)"/>
<path d="M0 0 C0.66 0 1.32 0 2 0 C2 3.96 2 7.92 2 12 C0.68 11.67 -0.64 11.34 -2 11 C-1.85892253 9.54119891 -1.71197585 8.08296449 -1.5625 6.625 C-1.48128906 5.81289063 -1.40007813 5.00078125 -1.31640625 4.1640625 C-1 2 -1 2 0 0 Z " fill="#232323" transform="translate(536,586)"/>
<path d="M0 0 C0.66 0 1.32 0 2 0 C2 3.96 2 7.92 2 12 C0.68 11.67 -0.64 11.34 -2 11 C-1.85892253 9.54119891 -1.71197585 8.08296449 -1.5625 6.625 C-1.48128906 5.81289063 -1.40007813 5.00078125 -1.31640625 4.1640625 C-1 2 -1 2 0 0 Z " fill="#232323" transform="translate(536,330)"/>
<path d="M0 0 C0.66 0.33 1.32 0.66 2 1 C1.34 3.64 0.68 6.28 0 9 C-0.99 9 -1.98 9 -3 9 C-3 6.36 -3 3.72 -3 1 C-2.01 0.67 -1.02 0.34 0 0 Z " fill="#171819" transform="translate(212,650)"/>
<path d="M0 0 C0.33 0 0.66 0 1 0 C1 3.3 1 6.6 1 10 C-0.32 10.33 -1.64 10.66 -3 11 C-3.32434322 6.35108046 -2.776422 3.77593392 0 0 Z " fill="#010101" transform="translate(537,618)"/>
<path d="M0 0 C0.66 0 1.32 0 2 0 C3.42258812 3.82320557 4.24042276 6.91281305 4 11 C3.34 10.67 2.68 10.34 2 10 C1.34 10.66 0.68 11.32 0 12 C0 8.04 0 4.08 0 0 Z " fill="#454545" transform="translate(534,566)"/>
<path d="M0 0 C0.33 0 0.66 0 1 0 C1 3.3 1 6.6 1 10 C-0.32 10.33 -1.64 10.66 -3 11 C-3.32434322 6.35108046 -2.776422 3.77593392 0 0 Z " fill="#010101" transform="translate(537,362)"/>
<path d="M0 0 C0.66 0 1.32 0 2 0 C3.42258812 3.82320557 4.24042276 6.91281305 4 11 C3.34 10.67 2.68 10.34 2 10 C1.34 10.66 0.68 11.32 0 12 C0 8.04 0 4.08 0 0 Z " fill="#454545" transform="translate(534,310)"/>
<path d="M0 0 C0.66 0 1.32 0 2 0 C-1.07517084 10.55808656 -1.07517084 10.55808656 -3 15 C-3.33 15 -3.66 15 -4 15 C-3.63495936 9.33557626 -2.9445679 4.99296295 0 0 Z " fill="#242424" transform="translate(201,549)"/>
<path d="M0 0 C0.33 0 0.66 0 1 0 C1 2.97 1 5.94 1 9 C-0.32 9 -1.64 9 -3 9 C-3 7.02 -3 5.04 -3 3 C-2.34 3 -1.68 3 -1 3 C-0.67 2.01 -0.34 1.02 0 0 Z " fill="#121212" transform="translate(537,441)"/>
<path d="M0 0 C0.99 0 1.98 0 3 0 C3 3.3 3 6.6 3 10 C2.01 9.67 1.02 9.34 0 9 C0 6.03 0 3.06 0 0 Z " fill="#131313" transform="translate(172,701)"/>
<path d="M0 0 C0.33 0 0.66 0 1 0 C1 3.3 1 6.6 1 10 C0.01 10 -0.98 10 -2 10 C-1.85950482 8.52031676 -1.71245174 7.04125484 -1.5625 5.5625 C-1.48128906 4.73878906 -1.40007812 3.91507813 -1.31640625 3.06640625 C-1 1 -1 1 0 0 Z " fill="#0F0F0F" transform="translate(176,672)"/>
<path d="M0 0 C0.66 0 1.32 0 2 0 C2 3.63 2 7.26 2 11 C1.34 10.34 0.68 9.68 0 9 C0 7.68 0 6.36 0 5 C-0.66 5 -1.32 5 -2 5 C-1.125 1.125 -1.125 1.125 0 0 Z " fill="#040404" transform="translate(536,561)"/>
<path d="M0 0 C0.66 0 1.32 0 2 0 C2 3.63 2 7.26 2 11 C1.34 10.34 0.68 9.68 0 9 C0 7.68 0 6.36 0 5 C-0.66 5 -1.32 5 -2 5 C-1.125 1.125 -1.125 1.125 0 0 Z " fill="#040404" transform="translate(536,305)"/>
<path d="M0 0 C0.33 0 0.66 0 1 0 C1.28571429 7.42857143 1.28571429 7.42857143 -1 11 C-1.66 10.67 -2.32 10.34 -3 10 C-2.25 3.375 -2.25 3.375 0 0 Z " fill="#060606" transform="translate(180,636)"/>
<path d="M0 0 C0.99 0.33 1.98 0.66 3 1 C2.64950425 4.24208567 2.43778819 5.61527704 -0.0625 7.8125 C-0.701875 8.204375 -1.34125 8.59625 -2 9 C-1.125 1.125 -1.125 1.125 0 0 Z " fill="#050505" transform="translate(216,613)"/>
<path d="M0 0 C0.33 0 0.66 0 1 0 C1 2.64 1 5.28 1 8 C0.34 8 -0.32 8 -1 8 C-1.66 8.99 -2.32 9.98 -3 11 C-3.36785986 4.62376238 -3.36785986 4.62376238 -1.5625 1.5625 C-1.046875 1.046875 -0.53125 0.53125 0 0 Z " fill="#010101" transform="translate(537,536)"/>
<path d="M0 0 C0.33 0 0.66 0 1 0 C1 2.64 1 5.28 1 8 C0.34 8 -0.32 8 -1 8 C-1.66 8.99 -2.32 9.98 -3 11 C-3.36785986 4.62376238 -3.36785986 4.62376238 -1.5625 1.5625 C-1.046875 1.046875 -0.53125 0.53125 0 0 Z " fill="#010101" transform="translate(537,280)"/>
<path d="M0 0 C2.35953094 2.35953094 2.49141413 3.77895617 3 7 C1.68 7.99 0.36 8.98 -1 10 C-1.02689216 8.52093108 -1.04634621 7.04172517 -1.0625 5.5625 C-1.07410156 4.73878906 -1.08570313 3.91507813 -1.09765625 3.06640625 C-1 1 -1 1 0 0 Z " fill="#313131" transform="translate(172,720)"/>
<path d="M0 0 C1.33333333 0 2.66666667 0 4 0 C4 1.65 4 3.3 4 5 C2.02 5.99 2.02 5.99 0 7 C0 4.69 0 2.38 0 0 Z " fill="#020202" transform="translate(210,644)"/>
<path d="M0 0 C0.33 0 0.66 0 1 0 C1 2.97 1 5.94 1 9 C0.01 9 -0.98 9 -2 9 C-2.25 3.375 -2.25 3.375 0 0 Z " fill="#050505" transform="translate(182,619)"/>
<path d="M0 0 C2 3 2 3 2 6 C0.02 6.99 0.02 6.99 -2 8 C-2 5.69 -2 3.38 -2 1 C-1.34 0.67 -0.68 0.34 0 0 Z " fill="#1F1F1F" transform="translate(536,555)"/>
<path d="M0 0 C2 3 2 3 2 6 C0.02 6.99 0.02 6.99 -2 8 C-2 5.69 -2 3.38 -2 1 C-1.34 0.67 -0.68 0.34 0 0 Z " fill="#1F1F1F" transform="translate(536,299)"/>
<path d="M0 0 C3.79588866 0.54226981 5.47211993 2.20127563 8 5 C4.40142046 5 2.90548882 4.04169485 0 2 C0 1.34 0 0.68 0 0 Z " fill="#2F2F2F" transform="translate(248,454)"/>
<path d="M0 0 C0.99 0.33 1.98 0.66 3 1 C2.67 3.31 2.34 5.62 2 8 C1.01 7.34 0.02 6.68 -1 6 C-0.67 4.02 -0.34 2.04 0 0 Z " fill="#111111" transform="translate(207,690)"/>
<path d="M0 0 C0.33 0 0.66 0 1 0 C1 2.64 1 5.28 1 8 C0.34 8 -0.32 8 -1 8 C-1.99 8.495 -1.99 8.495 -3 9 C-2.44271087 5.65626525 -1.64826111 2.96687001 0 0 Z " fill="#010101" transform="translate(537,685)"/>
<path d="M0 0 C0.33 0 0.66 0 1 0 C1 2.97 1 5.94 1 9 C-0.32 8.67 -1.64 8.34 -3 8 C-3 7.34 -3 6.68 -3 6 C-2.34 6 -1.68 6 -1 6 C-0.67 4.02 -0.34 2.04 0 0 Z " fill="#050505" transform="translate(537,652)"/>
<path d="M0 0 C0.33 0 0.66 0 1 0 C1 2.64 1 5.28 1 8 C0.34 8 -0.32 8 -1 8 C-1.99 8.495 -1.99 8.495 -3 9 C-2.44271087 5.65626525 -1.64826111 2.96687001 0 0 Z " fill="#010101" transform="translate(537,429)"/>
<path d="M0 0 C0.33 0 0.66 0 1 0 C1 2.97 1 5.94 1 9 C-0.32 8.67 -1.64 8.34 -3 8 C-3 7.34 -3 6.68 -3 6 C-2.34 6 -1.68 6 -1 6 C-0.67 4.02 -0.34 2.04 0 0 Z " fill="#050505" transform="translate(537,396)"/>
<path d="M0 0 C1.485 0.99 1.485 0.99 3 2 C3.1875 5.125 3.1875 5.125 3 8 C2.01 7.67 1.02 7.34 0 7 C0 4.69 0 2.38 0 0 Z " fill="#020202" transform="translate(205,705)"/>
<path d="M0 0 C2.5654594 2.5654594 2.54046087 4.47686668 3 8 C2.01 7.67 1.02 7.34 0 7 C-1.125 2.25 -1.125 2.25 0 0 Z " fill="#181B1E" transform="translate(233,551)"/>
<path d="M0 0 C0.99 0.33 1.98 0.66 3 1 C3.1875 3.3125 3.1875 3.3125 3 6 C2.01 6.99 1.02 7.98 0 9 C0 6.03 0 3.06 0 0 Z " fill="#313131" transform="translate(182,313)"/>
<path d="M0 0 C0.66 0 1.32 0 2 0 C1.67 2.64 1.34 5.28 1 8 C0.01 8 -0.98 8 -2 8 C-1.34 5.36 -0.68 2.72 0 0 Z " fill="#363636" transform="translate(188,290)"/>
<path d="M0 0 C0.6875 1.625 0.6875 1.625 1 4 C-0.4375 7.25 -0.4375 7.25 -2 10 C-2.33 10 -2.66 10 -3 10 C-3.36923077 4.58461538 -3.36923077 4.58461538 -1.5 1.625 C-1.005 1.08875 -0.51 0.5525 0 0 Z " fill="#3E3E3E" transform="translate(177,666)"/>
<path d="M0 0 C0.33 0 0.66 0 1 0 C1.125 2.875 1.125 2.875 1 6 C0.34 6.66 -0.32 7.32 -1 8 C-1.66 7.01 -2.32 6.02 -3 5 C-2.67 4.01 -2.34 3.02 -2 2 C-1.34 2 -0.68 2 0 2 C0 1.34 0 0.68 0 0 Z " fill="#515151" transform="translate(185,605)"/>
<path d="M0 0 C0.99 0 1.98 0 3 0 C2.67 2.64 2.34 5.28 2 8 C0 6 0 6 -0.125 2.875 C-0.08375 1.92625 -0.0425 0.9775 0 0 Z " fill="#494949" transform="translate(534,516)"/>
<path d="M0 0 C1.32 0.66 2.64 1.32 4 2 C3.67 3.32 3.34 4.64 3 6 C1.68 5.01 0.36 4.02 -1 3 C-0.67 2.01 -0.34 1.02 0 0 Z " fill="#131313" transform="translate(225,436)"/>
<path d="M0 0 C0.99 0 1.98 0 3 0 C2.67 2.64 2.34 5.28 2 8 C0 6 0 6 -0.125 2.875 C-0.08375 1.92625 -0.0425 0.9775 0 0 Z " fill="#494949" transform="translate(534,260)"/>
<path d="M0 0 C1.32 0.33 2.64 0.66 4 1 C4 3.31 4 5.62 4 8 C0 3.375 0 3.375 0 0 Z " fill="#04060A" transform="translate(534,703)"/>
<path d="M0 0 C0.99 0.33 1.98 0.66 3 1 C3 2.65 3 4.3 3 6 C1.68 5.67 0.36 5.34 -1 5 C-0.67 3.35 -0.34 1.7 0 0 Z " fill="#000000" transform="translate(535,592)"/>
<path d="M0 0 C0.99 0.33 1.98 0.66 3 1 C3 2.65 3 4.3 3 6 C1.68 5.67 0.36 5.34 -1 5 C-0.67 3.35 -0.34 1.7 0 0 Z " fill="#000000" transform="translate(535,336)"/>
</svg>
